<?xml version="1.0" encoding="UTF-8" standalone="no"?>
<svg
   width="40"
   height="40"
   fill="none"
   version="1.1"
   id="svg2"
   sodipodi:docname="alcove.svg"
   inkscape:version="1.3.2 (091e20e, 2023-11-25, custom)"
   xmlns:inkscape="http://www.inkscape.org/namespaces/inkscape"
   xmlns:sodipodi="http://sodipodi.sourceforge.net/DTD/sodipodi-0.dtd"
   xmlns="http://www.w3.org/2000/svg"
   xmlns:svg="http://www.w3.org/2000/svg">
  <defs
     id="defs2" />
  <sodipodi:namedview
     id="namedview2"
     pagecolor="#ffffff"
     bordercolor="#000000"
     borderopacity="0.25"
     inkscape:showpageshadow="2"
     inkscape:pageopacity="0.0"
     inkscape:pagecheckerboard="0"
     inkscape:deskcolor="#d1d1d1"
     inkscape:zoom="15.267857"
     inkscape:cx="4.683041"
     inkscape:cy="18.699415"
     inkscape:window-width="1920"
     inkscape:window-height="1111"
     inkscape:window-x="-9"
     inkscape:window-y="-9"
     inkscape:window-maximized="1"
     inkscape:current-layer="svg2" />
  <path
     fill="#101828"
     d="M 2.282,7.575 H 13.14 A 0.346,0.346 0 0 0 13.383,7.476 L 14.426,6.46 A 1.615,1.615 0 0 1 15.561,6 h 16.465 a 2.3,2.3 0 0 1 1.904,0.994 l 1.973,2.888 c 0.28,0.41 0.306,0.934 0.068,1.368 a 1.37,1.37 0 0 1 -1.205,0.704 H 26.28 v 0.837 h 4.346 a 2.87,2.87 0 0 1 2.64,1.702 l 2.545,5.818 2.23,0.87 C 39.231,21.646 40,22.754 40,24.005 v 5.388 c 0,0.804 -0.67,1.458 -1.494,1.458 H 35.912 C 35.611,32.634 34.02,34 32.106,34 30.192,34 28.6,32.634 28.3,30.85 H 14.122 C 13.82,32.635 12.228,34 10.315,34 8.403,34 6.811,32.634 6.509,30.85 H 1.329 C 0.595,30.85 0,30.27 0,29.556 V 9.8 C 0,8.572 1.023,7.574 2.282,7.574 Z M 32.106,32.77 c 1.432,0 2.598,-1.137 2.598,-2.535 0,-1.397 -1.166,-2.534 -2.598,-2.534 -1.433,0 -2.598,1.137 -2.598,2.534 0,1.398 1.165,2.535 2.598,2.535 z M 26.28,29.62 h 2.019 l 0.017,-0.091 0.012,-0.062 c 0.01,-0.048 0.022,-0.096 0.034,-0.144 l 0.008,-0.03 c 0.015,-0.057 0.031,-0.113 0.05,-0.17 0.004,-0.016 0.01,-0.032 0.016,-0.049 a 4.18,4.18 0 0 1 0.065,-0.18 l 0.041,-0.1 0.03,-0.066 0.043,-0.095 0.033,-0.066 0.048,-0.09 0.035,-0.065 0.052,-0.088 0.038,-0.062 0.058,-0.088 0.039,-0.057 c 0.022,-0.031 0.044,-0.062 0.068,-0.092 l 0.035,-0.048 a 4.466,4.466 0 0 1 0.225,-0.266 l 0.037,-0.038 0.084,-0.087 0.05,-0.046 a 3.456,3.456 0 0 1 0.211,-0.188 l 0.058,-0.045 A 4.16,4.16 0 0 1 29.827,27.2 l 0.085,-0.059 0.06,-0.04 c 0.03,-0.02 0.06,-0.038 0.091,-0.057 l 0.06,-0.036 c 0.033,-0.02 0.067,-0.038 0.101,-0.057 l 0.052,-0.03 a 4.71,4.71 0 0 1 0.148,-0.073 l 0.011,-0.005 c 0.054,-0.026 0.108,-0.05 0.163,-0.072 0.017,-0.008 0.036,-0.014 0.053,-0.021 l 0.114,-0.044 0.065,-0.023 a 4.02,4.02 0 0 1 0.458,-0.126 l 0.076,-0.016 a 3.637,3.637 0 0 1 0.294,-0.044 l 0.072,-0.008 0.125,-0.01 c 0.02,0 0.041,-0.003 0.062,-0.003 a 3.497,3.497 0 0 1 0.378,0 c 0.02,0 0.04,0.002 0.062,0.004 0.041,0.002 0.083,0.005 0.125,0.01 0.024,0.001 0.048,0.005 0.072,0.007 a 3.454,3.454 0 0 1 0.37,0.06 3.79,3.79 0 0 1 0.458,0.126 l 0.065,0.023 0.114,0.044 0.053,0.02 c 0.055,0.023 0.11,0.047 0.163,0.073 l 0.011,0.005 c 0.05,0.024 0.099,0.048 0.147,0.074 l 0.052,0.029 c 0.035,0.018 0.069,0.037 0.102,0.057 l 0.06,0.036 0.09,0.057 0.061,0.04 0.085,0.06 a 2.876,2.876 0 0 1 0.141,0.106 l 0.058,0.045 a 5.09,5.09 0 0 1 0.211,0.188 l 0.05,0.046 0.084,0.087 0.037,0.038 c 0.04,0.042 0.078,0.086 0.115,0.13 l 0.015,0.018 c 0.032,0.039 0.064,0.077 0.095,0.118 l 0.035,0.048 0.068,0.092 0.039,0.057 0.058,0.088 0.038,0.062 0.051,0.088 0.036,0.065 0.048,0.09 0.033,0.066 c 0.015,0.032 0.03,0.063 0.043,0.095 l 0.03,0.065 a 2.467,2.467 0 0 1 0.065,0.164 l 0.041,0.117 0.017,0.05 c 0.017,0.056 0.034,0.112 0.05,0.17 l 0.007,0.03 c 0.012,0.047 0.023,0.095 0.033,0.143 l 0.013,0.062 0.017,0.091 h 2.593 a 0.23,0.23 0 0 0 0.233,-0.227 v -2.578 h -0.984 v -1.23 h 0.984 v -1.58 c 0,-0.745 -0.458,-1.405 -1.167,-1.682 l -2.36,-0.92 H 26.28 Z m 0,-9.448 h 8.1 L 32.107,14.975 A 1.61,1.61 0 0 0 30.626,14.021 H 26.28 Z M 10.315,32.77 c 1.433,0 2.598,-1.137 2.598,-2.535 0,-1.397 -1.165,-2.534 -2.598,-2.534 a 1.95,1.95 0 0 0 -0.133,0.004 c -1.194,0.059 -2.177,0.908 -2.412,2.02 a 2.606,2.606 0 0 0 -0.049,0.38 2.24,2.24 0 0 0 -0.003,0.13 c 0,1.398 1.165,2.535 2.597,2.535 z M 1.261,25.585 h 0.984 v 1.23 H 1.26 v 2.74 c 0,0.036 0.03,0.065 0.067,0.065 h 5.18 l 0.018,-0.09 c 0.004,-0.021 0.007,-0.043 0.012,-0.064 0.01,-0.047 0.02,-0.094 0.033,-0.14 l 0.008,-0.033 c 0.015,-0.057 0.032,-0.113 0.05,-0.17 l 0.017,-0.05 0.04,-0.116 0.025,-0.063 a 5.547,5.547 0 0 1 0.07,-0.167 l 0.043,-0.093 c 0.01,-0.023 0.022,-0.045 0.034,-0.067 l 0.046,-0.09 0.037,-0.065 a 4.985,4.985 0 0 1 0.186,-0.295 l 0.067,-0.091 0.037,-0.05 c 0.03,-0.039 0.06,-0.077 0.093,-0.115 l 0.016,-0.02 c 0.038,-0.044 0.076,-0.088 0.115,-0.13 l 0.038,-0.04 0.084,-0.085 0.05,-0.047 0.077,-0.073 0.055,-0.047 0.079,-0.066 0.058,-0.047 A 4.97,4.97 0 0 1 8.035,27.2 C 8.063,27.18 8.091,27.16 8.12,27.142 l 0.06,-0.041 0.09,-0.057 0.06,-0.036 0.102,-0.057 0.053,-0.03 A 3.95,3.95 0 0 1 8.631,26.849 C 8.635,26.847 8.639,26.844 8.644,26.843 A 2.58,2.58 0 0 1 8.806,26.771 L 8.86,26.75 8.973,26.706 9.039,26.683 a 3.45,3.45 0 0 1 0.105,-0.034 3.946,3.946 0 0 1 0.353,-0.091 l 0.075,-0.017 a 3.62,3.62 0 0 1 0.294,-0.044 l 0.072,-0.008 0.126,-0.01 c 0.02,0 0.04,-0.003 0.061,-0.003 a 3.5,3.5 0 0 1 0.378,0 c 0.021,0 0.041,0.002 0.062,0.004 0.042,0.002 0.084,0.005 0.125,0.01 0.024,0.001 0.048,0.005 0.072,0.007 a 3.526,3.526 0 0 1 0.188,0.026 l 0.106,0.018 0.076,0.016 a 3.79,3.79 0 0 1 0.281,0.07 l 0.072,0.022 c 0.035,0.01 0.07,0.022 0.104,0.034 l 0.066,0.023 0.114,0.044 0.053,0.02 a 3.966,3.966 0 0 1 0.321,0.152 l 0.053,0.029 0.102,0.057 0.06,0.036 0.09,0.057 0.061,0.04 0.084,0.06 a 2.428,2.428 0 0 1 0.14,0.105 l 0.059,0.047 c 0.027,0.021 0.053,0.044 0.079,0.066 l 0.054,0.047 0.079,0.074 0.049,0.046 0.084,0.086 0.037,0.04 a 4.111,4.111 0 0 1 0.225,0.265 l 0.036,0.048 c 0.023,0.03 0.046,0.061 0.067,0.092 l 0.039,0.058 a 3.468,3.468 0 0 1 0.148,0.237 l 0.036,0.065 0.047,0.09 0.033,0.066 0.044,0.095 0.029,0.065 c 0.015,0.034 0.028,0.068 0.041,0.102 l 0.024,0.062 c 0.015,0.039 0.028,0.078 0.041,0.118 l 0.017,0.048 c 0.018,0.056 0.034,0.114 0.05,0.17 l 0.006,0.028 c 0.013,0.048 0.024,0.097 0.035,0.146 l 0.011,0.06 0.019,0.093 H 25.018 V 11.34 c 0,-0.34 0.282,-0.616 0.63,-0.616 h 9.117 c 0.015,0 0.063,0 0.093,-0.055 A 0.092,0.092 0 0 0 34.852,10.564 L 32.88,7.677 A 1.033,1.033 0 0 0 32.025,7.23 H 15.56 A 0.346,0.346 0 0 0 15.317,7.329 L 14.274,8.346 A 1.615,1.615 0 0 1 13.139,8.805 H 2.282 A 1.01,1.01 0 0 0 1.261,9.801 Z"
     id="path1" />
  <path
     fill="#101828"
     d="m 17.601,12.298 h 3.989 c 0.805,0 1.461,0.64 1.461,1.426 v 13.165 c 0,0.34 -0.282,0.615 -0.63,0.615 h -5.65 a 0.623,0.623 0 0 1 -0.63,-0.615 V 13.724 c 0,-0.787 0.654,-1.426 1.46,-1.426 z m -0.2,13.975 H 21.79 V 19.04 H 17.4 v 7.233 z m 0,-8.463 h 4.389 v -4.087 a 0.198,0.198 0 0 0 -0.2,-0.196 H 17.6 c -0.11,0 -0.2,0.088 -0.2,0.196 v 4.085 h 0.001 z M 4.844,12.298 h 7.712 c 0.892,0 1.617,0.708 1.617,1.577 v 3.588 c 0,0.87 -0.726,1.577 -1.617,1.577 H 4.843 c -0.891,0 -1.616,-0.707 -1.616,-1.577 v -3.588 c 0,-0.87 0.725,-1.577 1.617,-1.577 z m -0.356,5.165 c 0,0.19 0.16,0.347 0.356,0.347 h 7.712 a 0.352,0.352 0 0 0 0.356,-0.347 V 13.875 A 0.352,0.352 0 0 0 12.556,13.528 H 4.843 a 0.352,0.352 0 0 0 -0.355,0.347 z"
     id="path2" />
  <path
     style="fill:#82d5ff;fill-opacity:1;stroke-width:0.0327485"
     d="m 26.297076,17.101754 v -3.061988 h 2.268545 c 2.097938,0 2.284803,0.0045 2.484725,0.05994 0.375097,0.104011 0.710049,0.345456 0.908694,0.655017 0.07195,0.112122 1.77051,3.945374 2.34964,5.302582 l 0.04541,0.106433 h -4.028509 -4.02851 z"
     id="path3" />
  <path
     style="fill:#82d5ff;fill-opacity:1;stroke-width:0.0327485"
     d="m 4.7281783,17.758791 c -0.2187048,-0.09519 -0.2088801,0.0038 -0.2088801,-2.103433 v -1.906676 l 0.079032,-0.09189 0.079032,-0.09188 3.9972135,-0.0086 3.9972133,-0.0086 0.107381,0.09593 0.10738,0.09593 0.009,1.868544 c 0.01,2.077544 0.01321,2.042594 -0.198196,2.142911 -0.105901,0.05025 -0.434758,0.05466 -3.9911634,0.05348 -3.1917592,-0.0011 -3.8937942,-0.0091 -3.9779835,-0.04577 z"
     id="path4" />
  <path
     style="fill:#82d5ff;fill-opacity:1;stroke-width:0.0327485"
     d="m 17.422222,15.731391 c 0,-1.968109 0.0031,-2.077235 0.05989,-2.128655 0.05439,-0.04923 0.249474,-0.0542 2.126798,-0.0542 h 2.066909 l 0.05098,0.07278 c 0.04483,0.064 0.05098,0.320934 0.05098,2.128655 v 2.055871 H 19.6 17.422222 Z"
     id="path5" />
  <path
     style="fill:#eaff26;fill-opacity:1;stroke-width:0.0327485"
     d="m 1.277193,28.220079 v -1.375635 h 0.4912281 0.491228 V 26.205848 25.567251 H 1.7681599 1.2766706 l 0.00845,-7.99883 0.00845,-7.99883 0.091371,-0.186064 C 1.4840016,9.1818 1.6261552,9.038888 1.8430158,8.923008 l 0.1382707,-0.07388 5.7309942,-0.01638 5.7309943,-0.01637 0.212865,-0.07578 c 0.325937,-0.116041 0.489841,-0.241975 1.152671,-0.885646 l 0.612321,-0.59462 8.459024,0.0084 8.459025,0.0084 0.138312,0.07391 c 0.07607,0.04065 0.186597,0.122301 0.245614,0.18145 0.156446,0.1568 2.099173,3.007617 2.102307,3.084995 0.0026,0.06513 -0.02352,0.06559 -4.680385,0.08187 l -4.683041,0.01638 -0.142392,0.08152 c -0.08772,0.05022 -0.17574,0.13824 -0.22924,0.229239 l -0.08685,0.147721 -0.0085,9.210623 -0.0085,9.210623 -5.423322,-0.0083 -5.423323,-0.0083 -0.06082,-0.239513 c -0.318716,-1.255027 -1.289688,-2.280352 -2.547053,-2.689628 -0.430564,-0.140151 -0.722076,-0.181457 -1.265378,-0.179301 -0.417779,0.0017 -0.5439843,0.015 -0.8440592,0.08926 C 8.630254,26.755826 8.0362843,27.092972 7.4980444,27.65217 7.0086322,28.160639 6.742382,28.630813 6.5645787,29.300585 l -0.073896,0.278362 -2.6067446,0.0084 -2.6067447,0.0084 z m 21.338809,-0.736141 c 0.175664,-0.05217 0.346633,-0.202352 0.404212,-0.355076 0.0241,-0.06393 0.03476,-2.168767 0.03476,-6.865556 0,-6.711748 -6.04e-4,-6.775322 -0.06641,-6.988363 -0.128298,-0.415382 -0.454117,-0.742488 -0.912574,-0.916182 -0.17923,-0.0679 -0.234528,-0.06981 -2.326667,-0.08004 -1.406095,-0.0069 -2.222578,0.0015 -2.374269,0.02447 -0.646604,0.09776 -1.144743,0.597075 -1.233019,1.235941 -0.01853,0.134088 -0.02727,2.859839 -0.02205,6.870229 0.0081,6.183766 0.01255,6.655045 0.0643,6.749524 0.07397,0.13504 0.267763,0.302066 0.378882,0.326551 0.0492,0.01084 0.104194,0.02463 0.122206,0.03064 0.01801,0.006 1.323232,0.01209 2.900489,0.01351 2.435421,0.0022 2.892222,-0.0047 3.030133,-0.04564 z m -9.610101,-8.49359 c 0.564716,-0.156592 1.022731,-0.632412 1.140176,-1.1845 0.0276,-0.12977 0.03543,-0.756818 0.02799,-2.243275 l -0.01032,-2.063158 -0.07695,-0.190735 c -0.177466,-0.439898 -0.572322,-0.802967 -1.029616,-0.946728 l -0.236128,-0.07423 H 8.6783626 4.5356725 l -0.2128655,0.07623 c -0.5412057,0.193818 -0.9248586,0.60529 -1.0646003,1.141795 -0.040663,0.156115 -0.04885,0.515436 -0.04885,2.143967 0,1.30178 0.01211,2.014489 0.03619,2.129962 0.1216827,0.583506 0.6061271,1.083278 1.186489,1.224029 0.1305415,0.03166 1.1033571,0.04165 4.2634099,0.0438 3.8722084,0.0026 4.1060014,-4.66e-4 4.3104554,-0.05716 z"
     id="path6" />
  <path
     style="fill:#eaff26;fill-opacity:1;stroke-width:0.0327485"
     d="m 26.297076,25.501754 v -4.093567 h 4.437456 4.437456 l 1.187105,0.462051 c 0.652908,0.254128 1.264513,0.499696 1.359121,0.545707 0.389758,0.189549 0.728945,0.559927 0.896338,0.978763 0.07314,0.183002 0.07692,0.234016 0.08749,1.1819 l 0.01105,0.990643 h -0.493388 -0.493389 v 0.638597 0.638596 h 0.491228 0.491228 v 1.321241 c 0,1.238405 -0.0038,1.324638 -0.05989,1.375438 -0.05365,0.04856 -0.198154,0.0542 -1.388285,0.0542 H 35.9322 l -0.0568,-0.237427 c -0.338648,-1.415539 -1.493033,-2.505059 -2.995869,-2.827531 -0.37814,-0.08114 -1.154961,-0.08297 -1.529083,-0.0036 -1.46368,0.310514 -2.573744,1.314468 -2.971664,2.687606 -0.04623,0.159518 -0.08405,0.31049 -0.08405,0.335492 0,0.03779 -0.168589,0.04546 -0.998831,0.04546 h -0.99883 z"
     id="path7" />
  <path
     style="fill:#7f7f7f;fill-opacity:1;stroke-width:0.0327485"
     d="M 9.6935673,32.673564 C 9.0689632,32.518757 8.4879328,32.109092 8.1377466,31.576608 7.8357806,31.117447 7.684225,30.464194 7.7577422,29.938669 7.8760896,29.092684 8.3787988,28.38858 9.1368264,28.007097 c 0.3718303,-0.187127 0.6289665,-0.251251 1.0819296,-0.26981 0.34813,-0.01426 0.452717,-0.0062 0.687719,0.05296 1.07313,0.270209 1.826846,1.097594 1.968401,2.160797 0.09255,0.695092 -0.166918,1.454483 -0.686892,2.010377 -0.301353,0.322171 -0.831259,0.615206 -1.315469,0.727447 -0.297448,0.06895 -0.868937,0.06153 -1.1789477,-0.01531 z"
     id="path8" />
  <path
     style="fill:#82d5ff;fill-opacity:1;stroke-width:0.0327485"
     d="m 31.471345,32.671631 c -0.858902,-0.22361 -1.548149,-0.859649 -1.825413,-1.684496 -0.08003,-0.238084 -0.08806,-0.306811 -0.08806,-0.753217 0,-0.446406 0.008,-0.515133 0.08806,-0.753216 0.131145,-0.390152 0.298887,-0.651809 0.629829,-0.982456 0.305387,-0.305116 0.526948,-0.456786 0.869255,-0.59505 0.607391,-0.245336 1.407322,-0.230871 2.011616,0.03638 0.909822,0.402366 1.52407,1.327059 1.52407,2.294345 0,1.160441 -0.867033,2.212421 -2.025905,2.458053 -0.317949,0.06739 -0.883825,0.05767 -1.183452,-0.02034 z"
     id="path9" />
  <path
     style="fill:#82d5ff;fill-opacity:1;stroke-width:0.0327485"
     d="m 17.422222,22.652632 v -3.60234 H 19.6 21.777778 v 3.60234 3.602339 H 19.6 17.422222 Z"
     id="path10" />
  <path
     style="fill:#7f7f7f;fill-opacity:1;stroke-width:0.0327485"
     d="m 31.549983,32.674298 c -0.07383,-0.01554 -0.245375,-0.07141 -0.381221,-0.124164 -0.755566,-0.293386 -1.376779,-0.999856 -1.566123,-1.78106 -0.05616,-0.231718 -0.02477,-1.05113 0.0481,-1.255624 0.170164,-0.477501 0.431056,-0.845521 0.850195,-1.199302 0.452654,-0.38207 0.958499,-0.557021 1.609005,-0.55649 0.648338,5.29e-4 1.159228,0.17708 1.61143,0.556872 1.0273,0.862799 1.229512,2.230828 0.489438,3.311201 -0.306305,0.44715 -0.752644,0.781145 -1.321032,0.988526 -0.157333,0.0574 -0.278438,0.07109 -0.697965,0.07888 -0.279181,0.0052 -0.568005,-0.0033 -0.64183,-0.01883 z"
     id="path11" />
</svg>
