<?xml version="1.0" encoding="UTF-8" standalone="no"?>
<svg
   width="40"
   height="28"
   fill="none"
   version="1.1"
   id="svg2"
   sodipodi:docname="alcove.svg"
   inkscape:version="1.3.2 (091e20e, 2023-11-25, custom)"
   xmlns:inkscape="http://www.inkscape.org/namespaces/inkscape"
   xmlns:sodipodi="http://sodipodi.sourceforge.net/DTD/sodipodi-0.dtd"
   xmlns="http://www.w3.org/2000/svg"
   xmlns:svg="http://www.w3.org/2000/svg">
  <defs
     id="defs2" />
  <sodipodi:namedview
     id="namedview2"
     pagecolor="#ffffff"
     bordercolor="#000000"
     borderopacity="0.25"
     inkscape:showpageshadow="2"
     inkscape:pageopacity="0.0"
     inkscape:pagecheckerboard="0"
     inkscape:deskcolor="#d1d1d1"
     inkscape:zoom="30.535714"
     inkscape:cx="19.992982"
     inkscape:cy="14"
     inkscape:window-width="1920"
     inkscape:window-height="1111"
     inkscape:window-x="-9"
     inkscape:window-y="-9"
     inkscape:window-maximized="1"
     inkscape:current-layer="svg2" />
  <path
     fill="#101828"
     d="M2.282 1.575H13.14a.346.346 0 0 0 .243-.099L14.426.46A1.615 1.615 0 0 1 15.561 0h16.465a2.3 2.3 0 0 1 1.904.994l1.973 2.888c.28.41.306.934.068 1.368a1.37 1.37 0 0 1-1.205.704H26.28v.837h4.346a2.87 2.87 0 0 1 2.64 1.702l2.545 5.818 2.23.87c1.19.465 1.959 1.573 1.959 2.824v5.388c0 .804-.67 1.458-1.494 1.458h-2.594C35.611 26.634 34.02 28 32.106 28S28.6 26.634 28.3 24.85H14.122C13.82 26.635 12.228 28 10.315 28c-1.912 0-3.504-1.366-3.806-3.15h-5.18C.595 24.85 0 24.27 0 23.556V3.8c0-1.228 1.023-2.226 2.282-2.226ZM32.106 26.77c1.432 0 2.598-1.137 2.598-2.535 0-1.397-1.166-2.534-2.598-2.534-1.433 0-2.598 1.137-2.598 2.534 0 1.398 1.165 2.535 2.598 2.535Zm-5.826-3.15h2.019l.017-.091.012-.062c.01-.048.022-.096.034-.144l.008-.03c.015-.057.031-.113.05-.17.004-.016.01-.032.016-.049a4.18 4.18 0 0 1 .065-.18l.041-.1.03-.066.043-.095.033-.066.048-.09.035-.065.052-.088.038-.062.058-.088.039-.057c.022-.031.044-.062.068-.092l.035-.048a4.466 4.466 0 0 1 .225-.266l.037-.038.084-.087.05-.046a3.456 3.456 0 0 1 .211-.188l.058-.045a4.16 4.16 0 0 1 .141-.107l.085-.059.06-.04c.03-.02.06-.038.091-.057l.06-.036c.033-.02.067-.038.101-.057l.052-.03a4.71 4.71 0 0 1 .148-.073l.011-.005c.054-.026.108-.05.163-.072.017-.008.036-.014.053-.021l.114-.044.065-.023a4.02 4.02 0 0 1 .458-.126l.076-.016a3.637 3.637 0 0 1 .294-.044l.072-.008.125-.01c.02 0 .041-.003.062-.003a3.497 3.497 0 0 1 .378 0c.02 0 .04.002.062.004.041.002.083.005.125.01.024.001.048.005.072.007a3.454 3.454 0 0 1 .37.06 3.79 3.79 0 0 1 .458.126l.065.023.114.044.053.02c.055.023.11.047.163.073l.011.005c.05.024.099.048.147.074l.052.029c.035.018.069.037.102.057l.06.036.09.057.061.04.085.06a2.876 2.876 0 0 1 .141.106l.058.045a5.09 5.09 0 0 1 .211.188l.05.046.084.087.037.038c.04.042.078.086.115.13l.015.018c.032.039.064.077.095.118l.035.048.068.092.039.057.058.088.038.062.051.088.036.065.048.09.033.066c.015.032.03.063.043.095l.03.065a2.467 2.467 0 0 1 .065.164l.041.117.017.05c.017.056.034.112.05.17l.007.03c.012.047.023.095.033.143l.013.062.017.091h2.593a.23.23 0 0 0 .233-.227v-2.578h-.984v-1.23h.984v-1.58c0-.745-.458-1.405-1.167-1.682l-2.36-.92H26.28v8.217Zm0-9.448h8.1l-2.273-5.197a1.61 1.61 0 0 0-1.481-.954H26.28v6.151ZM10.315 26.77c1.433 0 2.598-1.137 2.598-2.535 0-1.397-1.165-2.534-2.598-2.534a1.95 1.95 0 0 0-.133.004c-1.194.059-2.177.908-2.412 2.02a2.606 2.606 0 0 0-.049.38 2.24 2.24 0 0 0-.003.13c0 1.398 1.165 2.535 2.597 2.535Zm-9.054-7.185h.984v1.23H1.26v2.74c0 .036.03.065.067.065h5.18l.018-.09c.004-.021.007-.043.012-.064.01-.047.02-.094.033-.14l.008-.033c.015-.057.032-.113.05-.17l.017-.05.04-.116.025-.063a5.547 5.547 0 0 1 .07-.167l.043-.093c.01-.023.022-.045.034-.067l.046-.09.037-.065a4.985 4.985 0 0 1 .186-.295l.067-.091.037-.05c.03-.039.06-.077.093-.115l.016-.02c.038-.044.076-.088.115-.13l.038-.04.084-.085.05-.047.077-.073.055-.047.079-.066.058-.047a4.97 4.97 0 0 1 .14-.106c.028-.02.056-.04.085-.058l.06-.041.09-.057.06-.036.102-.057.053-.03a3.95 3.95 0 0 1 .146-.072c.004-.002.008-.005.013-.006a2.58 2.58 0 0 1 .162-.072l.054-.021.113-.044.066-.023a3.45 3.45 0 0 1 .105-.034 3.946 3.946 0 0 1 .353-.091l.075-.017a3.62 3.62 0 0 1 .294-.044l.072-.008.126-.01c.02 0 .04-.003.061-.003a3.5 3.5 0 0 1 .378 0c.021 0 .041.002.062.004.042.002.084.005.125.01.024.001.048.005.072.007a3.526 3.526 0 0 1 .188.026l.106.018.076.016a3.79 3.79 0 0 1 .281.07l.072.022c.035.01.07.022.104.034l.066.023.114.044.053.02a3.966 3.966 0 0 1 .321.152l.053.029.102.057.06.036.09.057.061.04.084.06a2.428 2.428 0 0 1 .14.105l.059.047c.027.021.053.044.079.066l.054.047.079.074.049.046.084.086.037.04a4.111 4.111 0 0 1 .225.265l.036.048c.023.03.046.061.067.092l.039.058a3.468 3.468 0 0 1 .148.237l.036.065.047.09.033.066.044.095.029.065c.015.034.028.068.041.102l.024.062c.015.039.028.078.041.118l.017.048c.018.056.034.114.05.17l.006.028c.013.048.024.097.035.146l.011.06.019.093h10.896V5.34c0-.34.282-.616.63-.616h9.117c.015 0 .063 0 .093-.055a.092.092 0 0 0-.006-.105L32.88 1.677a1.033 1.033 0 0 0-.855-.447H15.56a.346.346 0 0 0-.243.099l-1.043 1.017a1.615 1.615 0 0 1-1.135.459H2.282a1.01 1.01 0 0 0-1.021.996v15.784Z"
     id="path1" />
  <path
     fill="#101828"
     d="M17.601 6.298h3.989c.805 0 1.461.64 1.461 1.426v13.165c0 .34-.282.615-.63.615h-5.65a.623.623 0 0 1-.63-.615V7.724c0-.787.654-1.426 1.46-1.426Zm-.2 13.975h4.389V13.04H17.4v7.233Zm0-8.463h4.389V7.723a.198.198 0 0 0-.2-.196H17.6c-.11 0-.2.088-.2.196v4.085h.001ZM4.844 6.298h7.712c.892 0 1.617.708 1.617 1.577v3.588c0 .87-.726 1.577-1.617 1.577H4.843c-.891 0-1.616-.707-1.616-1.577V7.875c0-.87.725-1.577 1.617-1.577Zm-.356 5.165c0 .19.16.347.356.347h7.712a.352.352 0 0 0 .356-.347V7.875a.352.352 0 0 0-.356-.347H4.843a.352.352 0 0 0-.355.347v3.588Z"
     id="path2" />
  <path
     style="fill:#82d5ff;stroke-width:0.0327485;fill-opacity:1"
     d="M 26.297076,11.101754 V 8.0397661 h 2.268545 c 2.097938,0 2.284803,0.00451 2.484725,0.059945 0.375097,0.1040113 0.710049,0.345456 0.908694,0.6550165 0.07195,0.112122 1.77051,3.9453744 2.34964,5.3025824 l 0.04541,0.106433 h -4.028509 -4.02851 z"
     id="path3" />
  <path
     style="fill:#82d5ff;fill-opacity:1;stroke-width:0.0327485"
     d="M 4.7281783,11.758791 C 4.5094735,11.663605 4.5192982,11.762541 4.5192982,9.6553581 V 7.7486816 l 0.079032,-0.091885 0.079032,-0.091885 3.9972135,-0.00857 3.9972133,-0.00857 0.107381,0.095929 0.10738,0.095929 0.009,1.8685439 c 0.01,2.0775445 0.01321,2.0425945 -0.198196,2.1429115 -0.105901,0.05025 -0.434758,0.05466 -3.9911634,0.05348 -3.1917592,-0.0011 -3.8937942,-0.0091 -3.9779835,-0.04577 z"
     id="path4" />
  <path
     style="fill:#82d5ff;fill-opacity:1;stroke-width:0.0327485"
     d="m 17.422222,9.7313914 c 0,-1.9681094 0.0031,-2.077235 0.05989,-2.128655 0.05439,-0.049227 0.249474,-0.054198 2.126798,-0.054198 h 2.066909 l 0.05098,0.072784 c 0.04483,0.063999 0.05098,0.3209335 0.05098,2.128655 V 11.805848 H 19.6 17.422222 Z"
     id="path5" />
  <path
     style="fill:#eaff26;fill-opacity:1;stroke-width:0.0327485"
     d="m 1.277193,22.220079 v -1.375635 h 0.4912281 0.491228 V 20.205848 19.567251 H 1.7681599 1.2766706 l 0.00845,-7.99883 0.00845,-7.9988304 0.091371,-0.1860641 C 1.4840013,3.1817995 1.6261552,3.038888 1.8430158,2.9230081 L 1.9812865,2.8491228 7.7122807,2.8327485 13.443275,2.8163743 13.65614,2.7405895 C 13.982077,2.6245491 14.145981,2.4986146 14.808811,1.854944 l 0.612321,-0.5946203 8.459024,0.00843 8.459025,0.00843 0.138312,0.073906 c 0.07607,0.040648 0.186597,0.1223011 0.245614,0.1814506 0.156446,0.1567995 2.099173,3.0076172 2.102307,3.0849942 0.0026,0.065131 -0.02352,0.065589 -4.680385,0.081871 l -4.683041,0.016374 -0.142392,0.081519 c -0.08772,0.050218 -0.17574,0.1382401 -0.22924,0.2292397 l -0.08685,0.1477205 -0.0085,9.2106233 -0.0085,9.210623 -5.423322,-0.0083 -5.423323,-0.0083 -0.06082,-0.239513 c -0.318716,-1.255027 -1.289688,-2.280352 -2.547053,-2.689628 -0.430564,-0.140151 -0.722076,-0.181457 -1.265378,-0.179301 -0.417779,0.0017 -0.5439843,0.015 -0.8440592,0.08926 C 8.630254,20.755826 8.0362843,21.092972 7.4980444,21.65217 7.0086322,22.160639 6.742382,22.630813 6.5645787,23.300585 l -0.073896,0.278362 -2.6067446,0.0084 -2.6067447,0.0084 z m 21.338809,-0.736141 c 0.175664,-0.05217 0.346633,-0.202352 0.404212,-0.355076 0.0241,-0.06393 0.03476,-2.168767 0.03476,-6.865556 0,-6.7117482 -6.04e-4,-6.7753217 -0.06641,-6.988363 -0.128298,-0.4153818 -0.454117,-0.7424883 -0.912574,-0.9161816 -0.17923,-0.067904 -0.234528,-0.069806 -2.326667,-0.080042 -1.406095,-0.00688 -2.222578,0.00153 -2.374269,0.024468 -0.646604,0.097756 -1.144743,0.5970743 -1.233019,1.2359403 -0.01853,0.1340886 -0.02727,2.8598393 -0.02205,6.8702293 0.0081,6.183766 0.01255,6.655045 0.0643,6.749524 0.07397,0.13504 0.267763,0.302066 0.378882,0.326551 0.0492,0.01084 0.104194,0.02463 0.122206,0.03064 0.01801,0.006 1.323232,0.01209 2.900489,0.01351 2.435421,0.0022 2.892222,-0.0047 3.030133,-0.04564 z m -9.610101,-8.49359 c 0.564716,-0.156592 1.022731,-0.632412 1.140176,-1.1845 0.0276,-0.12977 0.03543,-0.756818 0.02799,-2.2432749 l -0.01032,-2.0631579 -0.07695,-0.190735 C 13.909331,6.8687818 13.514475,6.5057126 13.057181,6.3619517 L 12.821053,6.2877193 H 8.6783626 4.5356725 L 4.322807,6.3639513 c -0.5412057,0.193818 -0.9248586,0.6052893 -1.0646003,1.1417942 -0.040663,0.1561152 -0.04885,0.5154368 -0.04885,2.1439675 0,1.30178 0.01211,2.014489 0.03619,2.129962 0.1216827,0.583506 0.6061271,1.083278 1.186489,1.224029 0.1305415,0.03166 1.1033571,0.04165 4.2634099,0.0438 3.8722084,0.0026 4.1060014,-4.66e-4 4.3104554,-0.05716 z"
     id="path6" />
  <path
     style="fill:#eaff26;fill-opacity:1;stroke-width:0.0327485"
     d="m 26.297076,19.501754 v -4.093567 h 4.437456 4.437456 l 1.187105,0.462051 c 0.652908,0.254128 1.264513,0.499696 1.359121,0.545707 0.389758,0.189549 0.728945,0.559927 0.896338,0.978763 0.07314,0.183002 0.07692,0.234016 0.08749,1.1819 l 0.01105,0.990643 h -0.493388 -0.493389 v 0.638597 0.638596 h 0.491228 0.491228 v 1.321241 c 0,1.238405 -0.0038,1.324638 -0.05989,1.375438 -0.05365,0.04856 -0.198154,0.0542 -1.388285,0.0542 H 35.9322 l -0.0568,-0.237427 c -0.338648,-1.415539 -1.493033,-2.505059 -2.995869,-2.827531 -0.37814,-0.08114 -1.154961,-0.08297 -1.529083,-0.0036 -1.46368,0.310514 -2.573744,1.314468 -2.971664,2.687606 -0.04623,0.159518 -0.08405,0.31049 -0.08405,0.335492 0,0.03779 -0.168589,0.04546 -0.998831,0.04546 h -0.99883 z"
     id="path7" />
  <path
     style="fill:#7f7f7f;fill-opacity:1;stroke-width:0.0327485"
     d="M 9.6935673,26.673564 C 9.0689632,26.518757 8.4879328,26.109092 8.1377466,25.576608 7.8357806,25.117447 7.684225,24.464194 7.7577422,23.938669 7.8760896,23.092684 8.3787988,22.38858 9.1368264,22.007097 c 0.3718303,-0.187127 0.6289665,-0.251251 1.0819296,-0.26981 0.34813,-0.01426 0.452717,-0.0062 0.687719,0.05296 1.07313,0.270209 1.826846,1.097594 1.968401,2.160797 0.09255,0.695092 -0.166918,1.454483 -0.686892,2.010377 -0.301353,0.322171 -0.831259,0.615206 -1.315469,0.727447 -0.297448,0.06895 -0.868937,0.06153 -1.1789477,-0.01531 z"
     id="path8" />
  <path
     style="fill:#82d5ff;fill-opacity:1;stroke-width:0.0327485"
     d="m 31.471345,26.671631 c -0.858902,-0.22361 -1.548149,-0.859649 -1.825413,-1.684496 -0.08003,-0.238084 -0.08806,-0.306811 -0.08806,-0.753217 0,-0.446406 0.008,-0.515133 0.08806,-0.753216 0.131145,-0.390152 0.298887,-0.651809 0.629829,-0.982456 0.305387,-0.305116 0.526948,-0.456786 0.869255,-0.59505 0.607391,-0.245336 1.407322,-0.230871 2.011616,0.03638 0.909822,0.402366 1.52407,1.327059 1.52407,2.294345 0,1.160441 -0.867033,2.212421 -2.025905,2.458053 -0.317949,0.06739 -0.883825,0.05767 -1.183452,-0.02034 z"
     id="path9" />
  <path
     style="fill:#82d5ff;fill-opacity:1;stroke-width:0.0327485"
     d="m 17.422222,16.652632 v -3.60234 H 19.6 21.777778 v 3.60234 3.602339 H 19.6 17.422222 Z"
     id="path10" />
  <path
     style="fill:#7f7f7f;fill-opacity:1;stroke-width:0.0327485"
     d="m 31.549983,26.674298 c -0.07383,-0.01554 -0.245375,-0.07141 -0.381221,-0.124164 -0.755566,-0.293386 -1.376779,-0.999856 -1.566123,-1.78106 -0.05616,-0.231718 -0.02477,-1.05113 0.0481,-1.255624 0.170164,-0.477501 0.431056,-0.845521 0.850195,-1.199302 0.452654,-0.38207 0.958499,-0.557021 1.609005,-0.55649 0.648338,5.29e-4 1.159228,0.17708 1.61143,0.556872 1.0273,0.862799 1.229512,2.230828 0.489438,3.311201 -0.306305,0.44715 -0.752644,0.781145 -1.321032,0.988526 -0.157333,0.0574 -0.278438,0.07109 -0.697965,0.07888 -0.279181,0.0052 -0.568005,-0.0033 -0.64183,-0.01883 z"
     id="path11" />
</svg>
