<svg xmlns="http://www.w3.org/2000/svg" width="24" height="24" fill="none"><path d="M20.84 4.61a5.5 5.5 0 0 0-7.78 0L12 5.67l-1.06-1.06a5.501 5.501 0 1 0-7.78 7.78l1.06 1.06L12 21.23l7.78-7.78 1.06-1.06a5.5 5.5 0 0 0 0-7.78Z" style="color:#000;fill:#e44848;stroke-linecap:round;stroke-linejoin:round;-inkscape-stroke:none"/><path d="M16.95 1.848a6.65 6.65 0 0 0-4.703 1.95L12 4.042l-.246-.246a6.652 6.652 0 0 0-9.406 9.406l1.058 1.06 7.781 7.78a1.15 1.15 0 0 0 1.626 0l7.78-7.78 1.06-1.06A6.653 6.653 0 0 0 23.601 8.5a6.645 6.645 0 0 0-4.106-6.145 6.658 6.658 0 0 0-2.547-.507Zm-9.9 2.3c1.155 0 2.26.46 3.077 1.276l1.06 1.058a1.15 1.15 0 0 0 1.626 0l1.06-1.058a4.352 4.352 0 0 1 1.412-.944 1.15 1.15 0 0 0 0-.001 4.343 4.343 0 0 1 3.33.001 4.358 4.358 0 0 1 2.356 5.685 1.15 1.15 0 0 0 0 .002 4.343 4.343 0 0 1-.944 1.41l-1.06 1.06L12 19.605l-6.967-6.967-1.06-1.06A4.347 4.347 0 0 1 2.699 8.5a4.347 4.347 0 0 1 4.352-4.352Z" style="color:#000;fill:#e44848;stroke-linecap:round;stroke-linejoin:round;-inkscape-stroke:none"/></svg>