<svg xmlns="http://www.w3.org/2000/svg" width="18" height="20" fill="none"><g clip-path="url(#a)"><path d="M9 .084a8.252 8.252 0 0 0-8.25 8.25c0 3.238 2.017 6.073 3.955 8.12 1.938 2.045 3.879 3.337 3.879 3.337a.75.75 0 0 0 .832 0s1.94-1.292 3.879-3.338c1.938-2.046 3.955-4.88 3.955-8.119A8.252 8.252 0 0 0 9 .084Zm0 1.5a6.75 6.75 0 0 1 6.75 6.75c0 2.595-1.733 5.175-3.545 7.088-1.603 1.692-2.858 2.522-3.205 2.762-.347-.24-1.602-1.07-3.205-2.762-1.812-1.913-3.545-4.493-3.545-7.088A6.75 6.75 0 0 1 9 1.584Z" style="color:#000;fill:#101828;stroke-linecap:round;stroke-linejoin:round;-inkscape-stroke:none"/><path d="M9 5.084a3.261 3.261 0 0 0-3.25 3.25A3.261 3.261 0 0 0 9 11.584a3.261 3.261 0 0 0 3.25-3.25A3.261 3.261 0 0 0 9 5.084zm0 1.5c.975 0 1.75.775 1.75 1.75s-.775 1.75-1.75 1.75-1.75-.775-1.75-1.75.775-1.75 1.75-1.75z" style="color:#000;fill:#101828;stroke-linecap:round;stroke-linejoin:round;-inkscape-stroke:none"/><path d="M16.941.002a1 1 0 0 0-.689.334l-16 18a1 1 0 0 0 .084 1.412 1 1 0 0 0 1.412-.084l16-18a1 1 0 0 0-.084-1.412 1 1 0 0 0-.723-.25z" style="color:#000;fill:#101828;stroke-linecap:round;stroke-linejoin:round;-inkscape-stroke:none"/><path d="M1.059.002a1 1 0 0 0-.723.25 1 1 0 0 0-.084 1.412l16 18a1 1 0 0 0 1.412.084 1 1 0 0 0 .084-1.412l-16-18a1 1 0 0 0-.69-.334Z" style="color:#000;fill:#101828;stroke-linecap:round;stroke-linejoin:round;-inkscape-stroke:none"/></g><defs><clipPath id="a"><path fill="#fff" d="M0 0h18v20H0z"/></clipPath></defs></svg>